<svg height="50" viewBox="0 0 45 50" width="45" xmlns="http://www.w3.org/2000/svg"><g fill="none" fill-rule="evenodd"><path d="m4.29126984 44.8900794-3.98968254-44.75039686h43.8412698l-3.9936508 44.74365076-17.9535714 4.977381z" fill="#1572b6"/><path d="m22.222619 46.0563492 14.5075397-4.0222222 3.4130953-38.2357143h-17.920635z" fill="#33a9dc"/><path d="m22.222619 20.0115079h7.2626985l.5015873-5.6202381h-7.7642858v-5.48849202h13.7626985l-.1317461 1.47261902-1.3492063 15.1246032h-12.2817461z" fill="#fff"/><path d="m22.2551587 34.2654762-.0242063.0071428-6.1123016-1.6503968-.390873-4.3773809h-5.5087302l.7686508 8.6178571 11.2424603 3.1202381.025-.0071428z" fill="#ebebeb"/><path d="m29.0186508 25.2678571-.6611111 7.35-6.1214286 1.652381v5.7103175l11.2515873-3.118254.0825397-.927381.9547619-10.6670635z" fill="#fff"/><path d="m22.2412698 8.90277778v5.48849202h-13.25714282l-.10992063-1.2333333-.25-2.7825397-.13134921-1.47261902zm-.0186508 11.10952382v5.4884921h-6.0353174l-.1099206-1.2333334-.2503969-2.7825397-.1309524-1.472619z" fill="#ebebeb" fill-rule="nonzero"/></g></svg>