<svg height="49" viewBox="0 0 50 49" width="50" xmlns="http://www.w3.org/2000/svg"><g fill="#181616" fill-rule="evenodd"><path d="m24.999793 0c-13.8051947 0-24.999793 11.2505515-24.999793 25.1303239 0 11.1036514 7.1632016 20.5231533 17.0963842 23.8465084 1.2489961.2330427 1.7076927-.5451534 1.7076927-1.2089089 0-.5992526-.0231832-2.5788669-.0339468-4.678748-6.9549666 1.5201874-8.4225474-2.9650519-8.4225474-2.9650519-1.1372198-2.9047106-2.77577681-3.6770806-2.77577681-3.6770806-2.26864386-1.5597214.17097626-1.5272618.17097626-1.5272618 2.50999775.1768627 3.83226935 2.5896867 3.83226935 2.5896867 2.2297292 3.8410428 5.8483818 2.7307609 7.2749779 2.0890612.2243805-1.6242242.8722687-2.7332577 1.5872227-3.3608084-5.5527956-.6346251-11.39041371-2.7898538-11.39041371-12.4190941 0-2.7436614.97700721-4.9854487 2.57623551-6.7457533-.2599832-.6325444-1.1156925-3.1885232.2417679-6.6500393 0 0 2.0989096-.67540765 6.8763092 2.5759539 1.9945851-.5572217 4.1336513-.8372891 6.258642-.8468605 2.1237487.0095714 4.2640569.2888065 6.2623678.8460282 4.7716039-3.25136154 6.8680296-2.5759539 6.8680296-2.5759539 1.3607723 3.4610999.505063 6.0174949.2454937 6.6500393 1.6029542 1.7603046 2.5729237 4.0020919 2.5729237 6.7457533 0 9.6521285-5.8483818 11.7769783-11.4152529 12.3995352.8971079.7798607 1.696101 2.3096194 1.696101 4.6537791 0 3.362473-.028979 6.0686811-.028979 6.8963987 0 .6687493.4504169 1.4523553 1.7172144 1.2055798 9.9273868-3.3266843 17.0823087-12.7432732 17.0823087-23.8427631-.000414-13.8789401-11.1937703-25.12990775-25.000207-25.12990775z"/><path d="m9.49135532 35.7291689c-.05488351.127676-.24965805.1659787-.42710095.0787335-.18156949-.0834149-.28267068-.2574798-.22407325-.3855813.05364553-.1319319.24883272-.1681067.42916424-.0800103.18156948.0838405.28473396.2596077.2215973.3872837zm1.00936128 1.1614255c-.1184328.1136316-.3507592.0608589-.50839457-.1191642-.16341253-.1787463-.19394922-.4183515-.07304045-.5336854.12297202-.1132061.34828332-.0595822.51169582.1191642.1625872.1812998.1947745.4187771.0701518.534111zm.9829512 1.4797642c-.1526835.1098013-.4027542.007235-.5570882-.221305-.1526835-.2289655-.1526835-.5034688.0041265-.6128445.1539214-.1098013.4002782-.0106397.5570882.2157724.1518582.2319446.1518582.5064479-.0041265.6179515zm1.3456774 1.4303962c-.1361771.155339-.4275136.1136316-.6404451-.0978849-.2174707-.2072606-.2781314-.5021921-.1415416-.6571055.138653-.1557647.4312275-.1123549.645397.0978849.2174707.206835.2830833.502192.1374151.6566799zm1.8569607.8303192c-.0606607.2013024-.3404428.2928035-.6231135.206835-.2818453-.0880964-.4663034-.3234457-.4085313-.526876.0577721-.2030048.3396174-.2979106.6239388-.2064095.2818453.0876708.4663034.3217434.407706.5264505zm2.0397681.1536367c.0070152.2119421-.2323264.3872837-.5282022.3915396-.2983516.007235-.5397565-.164702-.5426451-.3732394 0-.21407.2343897-.3872837.5323287-.3932419.2958757-.0055326.5389312.164702.5389312.3745161zm1.8974011-.3328086c.0354886.2064094-.1704277.4187771-.4646528.4753801-.2888606.0553262-.5570882-.0732009-.5942274-.277908-.0354886-.211942.1741416-.4243097.4630022-.4792104.2946377-.0523471.5587388.0723497.595878.2821639z" fill-rule="nonzero"/></g></svg>