<svg height="50" viewBox="0 0 45 50" width="45" xmlns="http://www.w3.org/2000/svg"><g fill="none" fill-rule="evenodd"><path d="m4.50432979 45.001925-4.00432979-45.001925h44l-4.0087324 44.9951074-18.0180832 5.0048926z" fill="#e44d26"/><path d="m21.5 45 14.5716002-3.9976973 3.4283998-38.0023027h-18z" fill="#f16529"/><g fill-rule="nonzero"><path d="m22.5 20.0800657h-7.3880212l-.5103301-5.6060614h7.8983513v-5.4740043h-14l.13387036 1.4685383 1.37196834 15.0859295h12.4941613zm0 14.2172167-.0247457.0067619-6.2176698-1.6467357-.3971487-4.3654409h-5.6051114l.7821274 8.5952448 11.4369911 3.1128875.0255571-.006762z" fill="#ebebeb"/><path d="m22.5 20.0809188v5.4748235h6.8816312l-.6484903 7.1002053-6.2331409 1.648056v5.6959964l11.4572034-3.1107404.084056-.9248685 1.3132233-14.4132298.1360327-1.4702425h-1.5056994zm0-11.0809188v5.4744258h13.4993184l.1120747-1.2299757.2550106-2.7757987.1335963-1.4686514z" fill="#fff"/></g></g></svg>