<svg height="50" viewBox="0 0 50 50" width="50" xmlns="http://www.w3.org/2000/svg"><g fill="none" fill-rule="evenodd"><path d="m0 0h50v50h-50z" fill="#f0db4f"/><path d="m43.8642405 37.1442719c-.3673527-2.2442721-1.859197-4.1293663-6.2782449-5.8871371-1.5351094-.6920265-3.246484-1.1875662-3.7564512-2.3287615-.1810724-.6641253-.2051085-1.0382362-.0905362-1.4402481.3288948-1.3046723 1.9164831-1.7114 3.1747761-1.3372891.8104192.2664361 1.5775733.8790819 2.0402693 1.8564072 2.1640556-1.3746216 2.159649-1.3655832 3.6707222-2.3102917-.5532322-.8413564-.8484764-1.2296143-1.2106212-1.5895781-1.3015581-1.4261011-3.075026-2.1605688-5.9112929-2.1043735l-1.4774226.1874484c-1.4157298.3509254-2.7649595 1.0798913-3.5561498 2.0572166-2.3739714 2.6423544-1.6969529 7.2668674 1.1917929 9.1700385 2.8458813 2.0953351 7.0265707 2.5720121 7.560574 4.5313783.5195817 2.3987107-1.7971035 3.1752265-4.0997676 2.8993591-1.6969529-.3462097-2.6407727-1.1922819-3.6611077-2.7307734-1.8780253 1.0661373-1.8780253 1.0661373-3.8089301 2.1554601.4578888.9820409.9390126 1.4264941 1.7065673 2.2772818 3.6326649 3.614571 12.7231405 3.436947 14.3535933-2.0340312.0660995-.1878414.50516-1.4406411.1522291-3.3721063zm-18.7822558-14.8516504h-4.6906565l-.019229 11.8960961c0 2.5299639.1334007 4.849294-.2860303 5.5601832-.6862323 1.3982-2.4645075 1.2248987-3.2749267.9537469-.8248409-.3976893-1.2442719-.9631783-1.7302029-1.7624865-.1334007-.2294966-.2335513-.4071206-.267202-.4208747l-3.8137373 2.2910359c.634154 1.2767712 1.5683594 2.3849567 2.7649596 3.1048843 1.787489 1.0523832 4.1899032 1.3750145 6.7024831.8091326 1.63526-.4672456 3.0461826-1.4351395 3.7848939-2.9083975 1.0680067-1.9314651.838862-4.2692649.8292475-6.8550311.0240362-4.2185713.0004006-8.4363568.0004006-12.6682892z" fill="#323330" fill-rule="nonzero"/></g></svg>