<svg height="198" viewBox="0 0 448 198" width="448" xmlns="http://www.w3.org/2000/svg"><path d="m799 4645.71027 5.878424-10.45053 1.743152.98052-6.75 12-.871576 1.54947-.871576-1.54947-6.75-12 1.743152-.98052zm437.20082-193.71027h2v13h-2zm0 26h2v13h-2zm0 26h2v13h-2zm-1.87489 25.28712 1.80156.86855c-1.99887 4.14607-5.32069 7.53717-9.42343 9.62253l-.90622-1.7829c3.71232-1.88693 6.71953-4.95685 8.52809-8.70818zm-20.86154 10.76841.00468 2-12.99996.03041-.00468-1.99999zm-25.99992.06083.00467 2-12.99996.03041-.00468-1.99999zm-25.99993.06083.00468 2-12.99997.03041-.00468-1.99999zm-25.99993.06083.00468 2-12.99997.03041-.00468-1.99999zm-25.99993.06084.00468 1.99999-12.99997.03042-.00468-2zm-25.99993.06083.00468 1.99999-12.99996.03042-.00468-2zm-25.99993.06083.00468 1.99999-12.99996.03042-.00468-2zm-25.99993.06083.00468 1.99999-12.99996.03042-.00468-2zm-25.99993.06083.00468 1.99999-12.999961.03042-.00468-2zm-25.999925.06083.004679 1.99999-12.999964.03042-.004679-2zm-25.999929.06083.004679 1.99999-12.999964.03042-.004679-1.99999zm-25.999929.06083.00468 2-12.999965.03041-.004679-1.99999zm-25.999929.06083.00468 2-12.999965.03041-.004679-1.99999zm-25.999928.06083.004679 2-12.999964.03041-.00468-1.99999zm-25.999929.06083.004679 2-12.999964.03041-.00468-1.99999zm-25.999929.06083.004679 2-4.514594.01056c-2.755956.00645-5.425999.59929-7.874802 1.7237l-.834556-1.81756c2.70788-1.24336 5.660779-1.89901 8.704678-1.90613zm-22.987183 11.10553 1.762869.94462c-1.447774 2.70189-2.223767 5.72118-2.240844 8.84904l-.000304 3.42443-2-.00018.000319-3.42979c.01888-3.46114.877182-6.80069 2.47796-9.78812zm-2.478279 26.218h2v13h-2zm0 26h2v13h-2zm0 26h2v5.45848 7.54152h-2v-7.54152z" fill="#979797" opacity=".5" transform="translate(-791 -4452)"/></svg>