<svg height="47" viewBox="0 0 50 47" width="50" xmlns="http://www.w3.org/2000/svg"><g fill="#61dafb" fill-rule="evenodd"><circle cx="25.462963" cy="23.611111" r="5.092593"/><path d="m42.2923323 15.3630822c-.8785943-.3312794-1.7971246-.6625588-2.7555911-.9524283.2396166-.9938382.4392971-1.9876764.5990415-2.9401046.8386582-5.46611016-.0798722-9.31723319-2.6357827-10.8079905-.7587859-.45550917-1.5974441-.6625588-2.5559105-.6625588-2.7955272 0-6.3498403 2.15331611-9.9440895 5.75597959-3.5942492-3.60266348-7.1485623-5.75597959-9.9440895-5.75597959-.9584664 0-1.7971246.20704963-2.5559105.6625588-2.55591054 1.53216723-3.47444089 5.38329027-2.63578275 10.8079905.15974445.9524282.35942495 1.9462664.59904155 2.9401046-.95846647.2898695-1.87699682.579739-2.75559107.9524283-4.99201278 1.9876764-7.70766773 4.7207315-7.70766773 7.7850659 0 3.0643345 2.75559105 5.7973896 7.70766773 7.785066.87859425.3312794 1.7971246.6625588 2.75559107.9524283-.2396166.9938382-.4392971 1.9876764-.59904155 2.9401046-.83865814 5.4661102.07987221 9.3172332 2.63578275 10.8079905.7587859.4555092 1.5974441.6625588 2.5559105.6625588 2.8354633 0 6.3897764-2.1533161 9.9440895-5.7559796 3.5942492 3.6026635 7.1485623 5.7559796 9.9440895 5.7559796.9584664 0 1.7971246-.2070496 2.5559105-.6625588 2.5559105-1.5321672 3.4744409-5.3832903 2.6357827-10.8079905-.1597444-.9524282-.3594249-1.9462664-.5990415-2.9401046.9584665-.2898695 1.8769968-.579739 2.7555911-.9524283 4.9920127-1.9876764 7.7076677-4.7207315 7.7076677-7.785066 0-3.0643344-2.715655-5.7973895-7.7076677-7.7850659zm-5.9105432-12.63002714c1.6373802.9938382 2.1964857 4.05817266 1.5175719 8.40621484-.1198083.8696084-.3194888 1.7806267-.5591054 2.733055-2.0766773-.4969191-4.2731629-.8281985-6.5894569-1.0352481-1.3578275-1.9876764-2.755591-3.7683032-4.1533546-5.38329028 2.9552716-3.02292453 5.9504792-5.09342079 8.3865815-5.09342079.5191693 0 .9984025.12422978 1.3977635.37268933zm-4.4728434 24.55608564c-.7188499 1.3251176-1.557508 2.6502352-2.4361022 3.9753528-1.4776358.1242297-2.9552716.1656397-4.4728435.1656397-1.557508 0-3.0351438-.04141-4.4728435-.1656397-.8785942-1.3251176-1.6773162-2.6502352-2.3961661-3.9753528-.7587859-1.3665276-1.4776358-2.774465-2.1166134-4.1409926.6389776-1.3665275 1.3578275-2.7744649 2.1166134-4.1409925.7188499-1.3251176 1.557508-2.6502352 2.4361023-3.9753528 1.4776357-.1242298 2.9552715-.1656397 4.4728434-.1656397 1.557508 0 3.0351438.0414099 4.4728435.1656397.8785942 1.3251176 1.6773162 2.6502352 2.3961661 3.9753528.7587859 1.3665276 1.4776358 2.774465 2.1166134 4.1409925-.6789137 1.3665276-1.3578275 2.7330551-2.1166134 4.1409926zm3.3146965-1.3665276c.5990415 1.4493474 1.0782747 2.8572849 1.5175719 4.2652223-1.3578275.3312794-2.7955272.579739-4.3130991.7867886.4792332-.7867886.9984026-1.6149871 1.4376997-2.4845955.4792332-.8696084.9185303-1.7392169 1.3578275-2.5674154zm-10.2236422 11.2220897c-.9584665-1.076658-1.8769968-2.2361359-2.7555911-3.4370237.9185304.0414099 1.8370607.0828198 2.7555911.0828198s1.8370607-.0414099 2.7555911-.0828198c-.8785943 1.2008878-1.7971246 2.3603657-2.7555911 3.4370237zm-7.428115-6.2114887c-1.5175719-.2070497-2.9552716-.4555092-4.3130991-.7867886.4392972-1.3665275.9185304-2.8158749 1.5175719-4.2652223.4392972.8281985.8785943 1.6978069 1.3578275 2.5260054.4792332.9110184.9584665 1.697807 1.4376997 2.5260055zm-2.7955272-10.5595309c-.5990415-1.4493474-1.0782747-2.8572849-1.5175719-4.2652223 1.3578275-.3312794 2.7955272-.579739 4.3130991-.7867886-.4792332.7867886-.9984026 1.6149871-1.4376997 2.4845955-.4792332.8696084-.9185303 1.7392169-1.3578275 2.5674154zm10.2236422-11.22208975c.9584665 1.07665805 1.8769968 2.23613595 2.7555911 3.43702375-.9185304-.0414099-1.8370607-.0828198-2.7555911-.0828198s-1.8370607.0414099-2.7555911.0828198c.8785943-1.2008878 1.7971246-2.3603657 2.7555911-3.43702375zm8.8658147 8.69608425-1.4376997-2.4845955c1.5175719.2070496 2.9552716.4555092 4.3130991.7867886-.4392972 1.3665275-.9185304 2.8158749-1.5175719 4.2652223-.4392972-.8696084-.8785943-1.7392169-1.3578275-2.5674154zm-21.7651757-6.7084078c-.6789138-4.34804218-.1198083-7.41237664 1.5175719-8.40621484.399361-.24845955.8785942-.37268933 1.3977635-.37268933 2.3961662 0 5.3913738 2.02908633 8.3865815 5.09342079-1.3977636 1.57357716-2.7955271 3.39561388-4.1533546 5.38329028-2.316294.2070496-4.5127796.5797389-6.5894569 1.0352481-.2396166-.9524283-.399361-1.8634466-.5591054-2.733055zm-9.86421727 12.0088782c0-1.9462664 2.27635782-4.0167627 6.26996805-5.5489299.79872204-.3312794 1.67731632-.6211489 2.55591052-.8696084.6389777 2.0704962 1.4376997 4.2652222 2.3961662 6.4599483-.9584665 2.194726-1.7971246 4.3480421-2.3961662 6.4185384-5.51118209-1.656397-8.82587857-4.1409925-8.82587857-6.4599484zm11.38178917 20.4150931c-1.6373802-.9938382-2.1964857-4.0581726-1.5175719-8.4062148.1198083-.8696084.3194888-1.7806267.5591054-2.733055 2.0766773.4969191 4.2731629.8281985 6.5894569 1.0352481 1.3578275 1.9876764 2.755591 3.7683032 4.1533546 5.3832903-2.9552716 3.0229245-5.9504792 5.0934208-8.3865815 5.0934208-.5191693 0-.9984025-.1242298-1.3977635-.3726894zm24.2811501-8.4062148c.6789138 4.3480422.1198083 7.4123766-1.5175719 8.4062148-.399361.2484596-.8785942.3726894-1.3977635.3726894-2.3961662 0-5.3913738-2.0290864-8.3865815-5.0934208 1.3977636-1.5735772 2.7955271-3.3956139 4.1533546-5.3832903 2.316294-.2070496 4.5127796-.5797389 6.5894569-1.0352481.2396166.9524283.399361 1.8634466.5591054 2.733055zm3.5942492-6.4599483c-.798722.3312794-1.6773163.6211489-2.5559105.8696084-.6389777-2.0704962-1.4376997-4.2652222-2.3961662-6.4599483.9584665-2.194726 1.7971246-4.3480421 2.3961662-6.4185384 5.5111821 1.656397 8.8258786 4.1409925 8.8258786 6.4599483 0 1.9462665-2.316294 4.0167628-6.2699681 5.54893z" fill-rule="nonzero"/></g></svg>