<svg height="166" viewBox="0 0 454 166" width="454" xmlns="http://www.w3.org/2000/svg"><path d="m1421.30162 5048.07776 4.87842-8.67276 1.74315.98052-6.75 12-.87157 1.54947-.87158-1.54947-6.75-12 1.74315-.98052 4.87843 8.67276v-8.1825-1.4975h2v1.4975zm-447.30162-160.07776h2v12h-2zm0 24h2v12h-2zm0 24h2v6.5515c0 1.75298.23722 3.47361.700112 5.12876l-1.926095.53866c-.511814-1.83008-.774017-3.73191-.774017-5.66742zm7.562855 22.69043 1.28049-1.53634c2.939588 2.45005 6.548099 3.96576 10.407925 4.31793l-.181724 1.99173c-4.267142-.38933-8.258013-2.06565-11.506691-4.77332zm23.659965 4.91546.01059-1.99997 11.99983.06351-.01058 1.99997zm23.99967.12702.01058-1.99997 11.99983.0635-.01058 1.99998zm23.99966.12701.01059-1.99997 11.99983.06351-.01059 1.99997zm23.99967.12702.01058-1.99998 11.99983.06351-.01058 1.99997zm23.99966.12701.01058-1.99997 11.99984.0635-.01059 1.99998zm23.99966.12701.01059-1.99997 11.99983.06351-.01058 1.99997zm23.99967.12702.01058-1.99998 11.99983.06351-.01058 1.99997zm23.99966.12701.01059-1.99997 11.99983.06351-.01059 1.99997zm23.99967.12701.01058-1.99997 11.99983.06351-.01058 1.99997zm23.99966.12702.01058-1.99997 11.99984.0635-.01059 1.99997zm23.99966.12701.01059-1.99997 11.99983.06351-.01058 1.99997zm23.99967.12702.01058-1.99998 11.99983.06351-.01058 1.99997zm23.99966.12701.01059-1.99997 11.99983.0635-.01059 1.99998zm23.99967.12701.01058-1.99997 11.99983.06351-.01058 1.99997zm23.99966.12702.01058-1.99998 11.99984.06351-.01059 1.99997zm23.99966.12701.01059-1.99997 11.99983.0635-.01059 1.99998zm23.99967.12701.01058-1.99997 11.18473.05919c.28575.00152.57083.00874.85512.02165l-.09071 1.99794c-.2576-.0117-.51597-.01824-.775-.01961zm22.56348 3.91734 1.20953-1.59281c3.37681 2.56424 5.91595 6.09676 7.25119 10.12997l-1.89866.62857c-1.20762-3.64775-3.50561-6.84476-6.56206-9.16573zm7.52069 20.84231h2v12h-2zm0 24h2v12h-2z" fill="#979797" opacity=".5" transform="translate(-974 -4888)"/></svg>