<svg height="38" viewBox="0 0 50 38" width="50" xmlns="http://www.w3.org/2000/svg"><path d="m354 21.5592509c0 .2793481.082435.4637257.12863.6429377.301066 1.1654735.948198 2.165643 1.715995 3.0779946 1.093553 1.3001805 2.432817 2.3468417 3.804737 3.3311165 1.189926.8535415 2.404145 1.6880095 3.59885 2.5351931.205091.1454359.399031.3127268.621645.491144-.191551.1033151-.350845.1943118-.516511.278156-1.576612.7979103-3.09349 1.6923805-4.491693 2.7759967-.842665.6532692-1.657454 1.3474671-2.232904 2.2546529-.925896 1.4591268-1.253643 3.0136214-.563502 4.6734179.201507.4847861.508944.9036095.942622 1.2131574.140577.1001362.298278.1994776.462749.2384194.421333.0989441.85063.1637147 1.27714.2419957l1.207847-.0007947c1.33568-.1188123 2.551492-.5753855 3.650222-1.3319698 1.717189-1.1825603 2.874062-2.7680494 3.371458-4.8029591.361597-1.478995.376332-2.9595796-.04978-4.4318195-.039425-.1366938-.089204-.270606-.140975-.4029288-.05177-.1323228-.1127-.2610692-.184383-.425976l2.738264-1.5711839.041019.0349682c-.04978.1625225-.102745.3246477-.147746.4887597-.325358 1.1857393-.541599 2.3921415-.463943 3.622783.082832 1.3113068.449607 2.5387694 1.218997 3.6343066.622043.8861255 2.104274.9191068 2.765344.0298024.23456-.3159057.461953-.6461166.632795-.9985799.446422-.9199016.85979-1.8560952 1.286299-2.7859309l.07447-.1700725c-.030664.4402812-.066505.826918-.082832 1.2139522-.025487.6043932.009955 1.2052101.217038 1.7801983.177214.4919387.478678.859502 1.043375.9242726.386288.0441076.694124-.1323228.978066-.3560397.443633-.3492844.804036-.7808236 1.07165-1.2711728.757045-1.3872037 1.5344-2.7660626 2.220559-4.1882344.74231-1.5382026 1.391433-3.1213075 2.080778-4.6857362l.113895-.2773612c.162878.6385666.276375 1.2640202.485448 1.8560951.242924.6870453.543591 1.3577986.87094 2.0098757.154914.3079584.136993.5078333-.077656.766121-.898418 1.0808347-1.781305 2.1747824-2.664988 3.267538-.195534.241201-.390271.486773-.553149.7502265-.098364.1601383-.163674.3552449-.191153.5420068-.052965.3568344.168056.700953.550759.7832077.349651.0751022.722001.1029178 1.078421.0766916 1.233334-.0905994 2.353171-.5225359 3.343183-1.2544835 1.282715-.9481145 1.69449-2.2419372 1.383867-3.7753714-.084028-.4160418-.23257-.8205601-.377129-1.2215021-.064912-.1808014-.069293-.307561.048983-.4760441 1.025455-1.4611136 1.901572-3.0112372 2.716361-4.5971236.032257-.0623864.065311-.1247729.12186-.1915303.26403 1.3709116.661468 2.6921525 1.373513 3.8910048-.363191.3492845-.722797.6659849-1.048155 1.014872-.716425.7685052-1.337672 1.6029732-1.661835 2.6206267-.139382.4386917-.246507.884536-.184383 1.3530302.096373.7275766.693726 1.2004417 1.410947 1.0347402 1.534798-.3544502 2.859726-1.0760663 3.827835-2.3543917.651513-.8606941.71085-1.8207296.438059-2.8264621-.074869-.2733876-.163675-.5424042-.259251-.8559257.378721-.1172229.747885-.2578903 1.129792-.3449134 1.982813-.4514074 3.94412-.372729 5.854852.3417345 1.115456.4172339 2.016662 1.1154055 2.551093 2.2137242.652707 1.3426987.291906 2.6166531-.976472 3.4654262-.118276.0790758-.253676.1414622-.351642.2404062-.060133.060797-.096372.1823909-.081638.266235.008363.048876.13779.1100703.21226.1092756.416952-.0031789.755053-.2213327 1.079615-.4454469.813196-.5614778 1.406566-1.3168699 1.534399-2.3114762l.025089-.0747048-.030664-.6477061c-.012345-.0373523.009159-.0743073.006372-.1025203-.172834-1.4483979-.948198-2.5717507-2.076-3.4523131-1.30621-1.019243-2.848575-1.4388612-4.479745-1.5052212-1.329309-.0540418-2.635918.1430516-3.888765.5972406-.357217.1291438-.711248.2821296-1.070456.4263734-.048186-.0870231-.099957-.1704699-.142568-.2566983-.368766-.7534053-.815585-1.4734319-.914348-2.3373049-.070089-.6135327-.156108-1.2262705-.009956-1.833048.140577-.5837301.323765-1.1575262.496201-1.7333091.088807-.2964348.026284-.4625336-.25726-.5960485-.098762-.0464918-.206285-.0870231-.313012-.1025204-.696912-.1009308-1.384265-.0433128-2.059274.1525885-.238941.069539-.412571.2030538-.465536.4669046-.030266.1513964-.091993.2964348-.135002.4458443-.176418.6210826-.301464 1.2540862-.5866 1.8457637-.714434 1.4841608-1.530019 2.9122931-2.36472 4.3300939-.090399.1529858-.185577.30319-.299473.4887598-.293101-.6119432-.605715-1.1611026-.700495-1.804835-.107125-.7279739-.191551-1.4547558-.009956-2.1771666.135002-.5388279.31142-1.0677216.4739-1.5993969.076859-.2527246.041416-.3854447-.187967-.5185622-.115886-.0671548-.246906-.1267597-.377527-.1462306-.722796-.1068914-1.434841-.0508628-2.13215.1740462-.216242.0699363-.329739.2094117-.395846.4319365-.194338.6564481-.360004 1.3287908-.632795 1.9530523-1.104704 2.5272458-2.241267 5.0413785-3.376635 7.5551139-.23695.52492-.51452 1.0315613-.781735 1.5425736-.0677.1295412-.166463.2435851-.250888.365179-.0677-.0798705-.093984-.1347069-.093586-.1895434.001992-.3230583-.036637-.6556534.025089-.9679828.186772-.9449356.401819-1.8847055.628415-2.820899.18717-.7732737.405005-1.5393947.612485-2.3075026.069692-.2570956.070886-.4975018-.114293-.7136688-.311022-.3620001-.960941-.4414732-1.346433-.1625225l-.170444.0961625.033053-.2741823c.08124-.5877039.097568-1.1734209-.064116-1.7523827-.201506-.7216161-.717619-1.1368633-1.467894-1.1138161-.34965.0107289-.716823.0703338-1.040588.1974908-1.361565.53247-2.408525 1.4754188-3.299775 2.6098978-.080842.1029177-.187569.196696-.301464.2598772-1.152094.6373746-2.307772 1.2668018-3.463052 1.8986132l-1.285901.7029399c-.344871-.328224-.658282-.6687664-1.013906-.9576513-1.085987-.8837413-2.189496-1.7456274-3.28305-2.6194346-.969304-.7744657-1.908342-1.581118-2.626758-2.6067189-.534431-.7629421-.878905-1.5978074-.911958-2.5411536-.041815-1.2020312.299871-2.3003499.913153-3.3227718.784523-1.3081279 1.85458-2.357968 3.030967-3.3088641 1.244484-1.0053352 2.590518-1.8588767 3.985536-2.6381108 1.951749-1.0899741 3.959252-2.054778 6.111712-2.6917552 2.207019-.6532692 4.446295-1.02719031 6.756058-.76651842.907976.10252035 1.789668.30994524 2.59928.75300798.620052.33895294 1.128598.78281044 1.365149 1.47661094.233366.6826742.226198 1.3744879.064514 2.067891-.328544 1.4042903-1.099128 2.5618166-2.068831 3.5961595-1.59055 1.6955594-3.530751 2.8499067-5.71507 3.6124514-1.260414.4398839-2.557067.716053-3.888765.8277128-1.086784.0909967-2.150868-.0051658-3.179907-.3822658-.68138-.249943-1.27475-.6322088-1.751836-1.1869313-.085222-.0993415-.194339-.2070276-.353234-.114044-.15571.0913941-.183188.2392142-.13102.389021.087214.2487509.167657.5078334.303455.7303582.341288.5582988.839082.9632144 1.387053 1.310512 1.052535.6679717 2.228921.8924833 3.448715.9445382 1.850997.0798705 3.656993-.1959012 5.437501-.6914163 2.541934-.7073109 4.752139-1.9566286 6.524683-3.9275624 1.475859-1.6411203 2.529987-3.4932418 2.755786-5.7296159.110311-1.0915635-.007168-2.1608746-.519298-3.156673-.555538-1.07884784-1.438823-1.88112916-2.494943-2.43386484-1.537983-.80466551-3.197827-1.27315966-4.911034-1.27315966h-1.716393c-2.074804 0-4.080714.59326697-6.030473 1.30097526-1.475859.53604632-2.923045 1.16865249-4.328018 1.86881083-3.05964 1.52548691-5.909011 3.36489261-8.249439 5.89412521-1.166032 1.2600466-2.153256 2.6504292-2.721139 4.2875758-.166064.479223-.323766.9930169-.44244 1.4885319zm11.121111 13.5910986c-.132612 1.7718536-.937445 3.2083306-2.252815 4.3718173-.739921.6540639-1.58856 1.1197765-2.576979 1.2834912-.358412.0592075-.725186.0735126-1.072845-.0747048-.495803-.2113985-.60691-.6504876-.616468-1.118187-.014735-.745458.246906-1.4193903.605715-2.0607385.468325-.8360574 1.154882-1.4734319 1.888033-2.0686857 1.154881-.9381804 2.407729-1.7321171 3.690842-2.4815488l.096771-.0397365c.198321.7311528.292703 1.4531663.237746 2.1882928zm10.018797-7.7005497c-.093585.5658488-.210666 1.1320949-.376332 1.6804595-.572662 1.8982159-1.308202 3.7376217-2.103478 5.5523908-.146948.335774-.3608.6421429-.546776.9604329-.028673.0492733-.071284.0917914-.112701.1327201-.23018.2268958-.448412.2149748-.564697-.0818573-.1354-.3449134-.218631-.7140662-.290313-1.0792452-.048187-.2451747-.036638-.5026676-.051771-.7538028.015531-1.7857614.561511-3.4086028 1.487806-4.9193872.381908-.6230694.797665-1.2167337 1.43285-1.6109205.195135-.1211965.414164-.2185511.635185-.2805401.338499-.0949704.546378.0611943.490227.3997498zm6.835306 8.6895929 2.456712-2.862225c.102346 1.0629532-1.708429 3.1848859-2.456712 2.862225zm7.846424-1.9260315c-.17363.0993414-.362792.1708673-.540803.2626587-.162878.0842416-.21664-.0007947-.221418-.1406674-.003186-.0949704.010752-.1943118.037036-.2865007.331729-1.1674604.942224-2.1640535 1.850598-2.9746795l.063717-.032584c.432085 1.2060049-.067301 2.5304247-1.18913 3.1717729z" fill="#cb6699" fill-rule="evenodd" transform="translate(-354 -6)"/></svg>