<svg height="50" viewBox="0 0 46 50" width="46" xmlns="http://www.w3.org/2000/svg"><g fill="none"><path d="m44.1133122 38.531746-20.225832 11.468254v-8.9325397l12.5832013-6.9404762zm1.3866878-1.2539682v-23.9642857l-7.4009509 4.2857142v15.4007937l7.3969889 4.2738095zm-43.6133122 1.2539682 20.2060222 11.4603175v-8.9246032l-12.58716325-6.9404762zm-1.3866878-1.2539682v-23.9642857l7.40095087 4.2857142v15.4007937zm.86767036-25.515873 20.74484944-11.7619048v8.63492063l-13.29239302 7.32142857-.10697306.0595238zm43.25673534 0-20.7369255-11.7619048v8.63492063l13.292393 7.31746037.1069731.0595238 7.3454833-4.25z" fill="#8ed6fb"/><path d="m22.1008029 39-12.6008029-6.8880484v-13.6325127l12.6008029 7.2111126zm1.7983942 0 12.6008029-6.8800715v-13.6404896l-12.6008029 7.2111126zm-13.544157-22.0840325 12.6449599-6.9159675 12.6449599 6.9159675-12.6449599 7.2430203z" fill="#1c78c0"/></g></svg>